<svg xmlns="http://www.w3.org/2000/svg" xmlns:xlink="http://www.w3.org/1999/xlink" version="1.1" width="32.01193561564295" height="26.316846275432987" viewBox="0.4470538377244857 0.10467647308901817 32.01193561564295 26.316846275432987">
  <!-- Exported by Scratch - http://scratch.mit.edu/ -->
  <g id="ID0.597694851923734">
    <path id="ID0.048198970034718513" fill="#284A00" d="M 31.197 1.3534 C 30.4732 0.6331 29.5118 0.2367 28.4908 0.2367 C 27.4612 0.2367 26.4943 0.6386 25.7684 1.3687 L 10.2475 16.9741 L 7.1774 13.7958 C 6.4471 13.0401 5.4666 12.6237 4.4155 12.6237 C 3.4155 12.6237 2.4687 13.0063 1.7494 13.701 C 0.2266 15.172 0.1844 17.6071 1.6549 19.1296 L 7.4261 25.1047 C 7.6234 25.3088 7.8497 25.4942 8.0886 25.6491 C 8.1166 25.6676 8.1451 25.6853 8.1737 25.7022 L 8.2101 25.7244 C 8.2671 25.759 8.3242 25.7936 8.3756 25.8208 C 8.9373 26.1276 9.5739 26.2895 10.2166 26.2895 C 10.2169 26.2895 10.2169 26.2895 10.2169 26.2895 C 11.2453 26.2895 12.2107 25.8881 12.9355 25.1591 L 31.212 6.7825 C 32.7044 5.2819 32.6978 2.846 31.197 1.3534 Z " stroke-width="0.264047050579471"/>
    <path id="ID0.9675217140465975" fill="#3CF300" d="M 30.6382 1.915 C 29.4458 0.7287 27.5169 0.7339 26.3303 1.9272 L 10.2393 18.1059 L 6.6073 14.3461 C 5.4381 13.1357 3.5095 13.1022 2.2997 14.2708 C 1.089 15.44 1.0557 17.3689 2.2247 18.5793 L 7.9957 24.5539 C 8.1597 24.7237 8.3397 24.8678 8.5293 24.9911 C 8.5544 25.0075 8.58 25.022 8.6056 25.0381 C 8.6553 25.068 8.7041 25.0986 8.7548 25.1258 C 9.914 25.7585 11.3956 25.5842 12.3733 24.6009 L 30.6499 6.2243 C 31.8368 5.0308 31.8317 3.1019 30.6382 1.915 Z " stroke-width="0.264047050579471"/>
  </g>
</svg>